/* XPM */
static const char * hzoom_xpm[] = {
"40 40 2 1",
" 	c None",
"0	c #000000",
"                                        ",
"                                        ",
"                                        ",
"                                        ",
"                                        ",
"                                        ",
"                                        ",
"                                        ",
"                                        ",
"                                        ",
"                                        ",
"                                        ",
"         0                    0         ",
"        00                    00        ",
"       000                    000       ",
"      0000                    0000      ",
"     00000                    00000     ",
"    000000                    000000    ",
"   0000000000000000000000000000000000   ",
"  000000000000000000000000000000000000  ",
" 00000000000000000000000000000000000000 ",
"  000000000000000000000000000000000000  ",
"   0000000000000000000000000000000000   ",
"    000000                    000000    ",
"     00000                    00000     ",
"      0000                    0000      ",
"       000                    000       ",
"        00                    00        ",
"         0                    0         ",
"                                        ",
"                                        ",
"                                        ",
"                                        ",
"                                        ",
"                                        ",
"                                        ",
"                                        ",
"                                        ",
"                                        ",
"                                        ",
};
