/* XPM */
static const char * speed_xpm[] = {
"40 40 2 1",
" 	c None",
"0	c #000000",
"                                        ",
"                                        ",
"                                        ",
"                                        ",
"                                        ",
"                                        ",
"                0                       ",
"                00                      ",
"                000                     ",
"        0       0000                    ",
"        00      00000                   ",
"        000     000000                  ",
"        0000    0000000                 ",
"        00000   00000000                ",
"        000000  000000000               ",
"        0000000 0000000000              ",
"        0000000000000000000             ",
"        00000000000000000000            ",
"        000000000000000000000           ",
"        0000000000000000000000          ",
"        00000000000000000000000         ",
"        0000000000000000000000          ",
"        000000000000000000000           ",
"        00000000000000000000            ",
"        0000000000000000000             ",
"        0000000 0000000000              ",
"        000000  000000000               ",
"        00000   00000000                ",
"        0000    0000000                 ",
"        000     000000                  ",
"        00      00000                   ",
"        0       0000                    ",
"                000                     ",
"                00                      ",
"                0                       ",
"                                        ",
"                                        ",
"                                        ",
"                                        ",
"                                        ",
};
