/* XPM */
static const char * vzoom_xpm[] = {
"40 40 2 1",
" 	c None",
"1	c #000000",
"                                        ",
"                   1                    ",
"                  111                   ",
"                 11111                  ",
"                1111111                 ",
"               111111111                ",
"              11111111111               ",
"             1111111111111              ",
"            111111111111111             ",
"           11111111111111111            ",
"                 11111                  ",
"                 11111                  ",
"                 11111                  ",
"                 11111                  ",
"                 11111                  ",
"                 11111                  ",
"                 11111                  ",
"                 11111                  ",
"                 11111                  ",
"                 11111                  ",
"                 11111                  ",
"                 11111                  ",
"                 11111                  ",
"                 11111                  ",
"                 11111                  ",
"                 11111                  ",
"                 11111                  ",
"                 11111                  ",
"                 11111                  ",
"                 11111                  ",
"           11111111111111111            ",
"            111111111111111             ",
"             1111111111111              ",
"              11111111111               ",
"               111111111                ",
"                1111111                 ",
"                 11111                  ",
"                  111                   ",
"                   1                    ",
"                                        "
};
